<?xml version="1.0" encoding="UTF-8" standalone="no"?>
<svg
   xmlns:dc="http://purl.org/dc/elements/1.1/"
   xmlns:cc="http://creativecommons.org/ns#"
   xmlns:rdf="http://www.w3.org/1999/02/22-rdf-syntax-ns#"
   xmlns:svg="http://www.w3.org/2000/svg"
   xmlns="http://www.w3.org/2000/svg"
   xmlns:sodipodi="http://sodipodi.sourceforge.net/DTD/sodipodi-0.dtd"
   xmlns:inkscape="http://www.inkscape.org/namespaces/inkscape"
   width="186.38223mm"
   height="82.374809mm"
   viewBox="0 0 186.38223 82.374809"
   version="1.1"
   id="svg47"
   inkscape:version="1.0.1 (c497b03c, 2020-09-10)"
   sodipodi:docname="cordee_teal_only_image.svg">
  <defs
     id="defs41" />
  <sodipodi:namedview
     id="base"
     pagecolor="#ffffff"
     bordercolor="#666666"
     borderopacity="1.0"
     inkscape:pageopacity="0.0"
     inkscape:pageshadow="2"
     inkscape:zoom="0.35"
     inkscape:cx="677.29576"
     inkscape:cy="419.90935"
     inkscape:document-units="mm"
     inkscape:current-layer="layer1"
     inkscape:document-rotation="0"
     showgrid="false"
     inkscape:window-width="1252"
     inkscape:window-height="1174"
     inkscape:window-x="957"
     inkscape:window-y="23"
     inkscape:window-maximized="0" />
  <metadata
     id="metadata44">
    <rdf:RDF>
      <cc:Work
         rdf:about="">
        <dc:format>image/svg+xml</dc:format>
        <dc:type
           rdf:resource="http://purl.org/dc/dcmitype/StillImage" />
        <dc:title></dc:title>
      </cc:Work>
    </rdf:RDF>
  </metadata>
  <g
     inkscape:label="Layer 1"
     inkscape:groupmode="layer"
     id="layer1"
     transform="translate(-11.508046,-8.7054511)">
    <path
       style="display:inline;mix-blend-mode:normal;fill:#008080;fill-opacity:1;stroke-width:0.488912"
       d="m 13.791011,89.574217 c -2.048982,-1.399155 -2.843858,-2.435288 -1.868268,-2.435288 0.209631,0 2.972352,-0.353341 6.139406,-0.785196 3.167055,-0.431856 9.543568,-1.046165 14.170027,-1.365137 l 8.411746,-0.579946 1.6941,-3.474901 c 1.684001,-3.4542 1.695037,-3.519926 1.854319,-11.033182 l 0.16024,-7.558286 -1.818439,-2.242723 c -1.204478,-1.485507 -1.979977,-2.076187 -2.296886,-1.74948 -0.26313,0.271273 -0.651779,0.493232 -0.863663,0.493232 -0.548409,0 -0.478566,-1.867578 0.08321,-2.225528 0.621645,-0.396068 1.314252,-3.14721 1.93919,-7.702763 0.949608,-6.922166 1.139243,-7.314277 3.954288,-8.176105 1.364158,-0.417644 3.430302,-0.759351 4.591397,-0.759351 1.161116,0 2.52723,-0.229579 3.035789,-0.510175 0.727368,-0.401313 1.103065,-0.295388 1.760689,0.496415 0.459809,0.553624 0.998521,1.006587 1.197134,1.006587 0.198555,0 0.806072,-1.061085 1.349872,-2.357967 1.7563,-4.18846 6.008879,-5.805881 9.498229,-3.612546 1.616891,1.016351 2.007422,1.937794 2.190732,5.168904 0.101077,1.781744 -0.01359,1.972356 -1.506088,2.502129 -1.432307,0.508423 -1.527872,0.648454 -0.842669,1.234701 1.431269,1.224598 0.658601,4.605212 -1.516378,6.634406 -0.623361,0.581581 -0.866057,1.296381 -0.715614,2.107675 0.127517,0.687247 -0.131507,1.792802 -0.5884,2.511569 -0.768457,1.209083 -0.767378,1.339358 0.01795,2.23478 0.600632,0.684222 1.480099,0.950852 3.136323,0.950852 2.509763,0 4.771945,0.687867 4.771945,1.451012 0,0.265522 -1.137595,0.550282 -2.527994,0.632806 l -2.527993,0.150055 -0.146273,1.805098 c -0.08042,0.992803 0.302462,3.561748 0.850791,5.708764 3.933509,15.401528 3.570198,14.332564 4.8526,14.277866 1.289278,-0.05499 13.12444,-1.691098 13.326814,-1.842312 3.185649,-2.380362 9.328446,-8.53729 9.590135,-9.612204 0.195163,-0.801626 0.629366,-1.153546 1.42327,-1.153546 1.580694,0 1.898956,-1.699218 1.041677,-5.561559 -0.676688,-3.048685 -0.935251,-3.090656 -1.540362,-0.250052 -0.325791,1.529421 -1.491405,2.265443 -2.287677,1.444552 -0.361324,-0.372498 -0.263283,-1.473905 0.333532,-3.746889 0.646573,-2.462527 0.76643,-4.086764 0.509862,-6.909452 -0.326557,-3.592574 -0.379371,-3.711751 -1.997434,-4.507213 -2.865565,-1.408757 -3.145507,-4.058836 -1.071409,-10.142528 1.334728,-3.914979 2.063217,-5.241823 3.776713,-6.878724 0.819746,-0.783108 1.775588,-2.093995 2.124094,-2.913077 0.402966,-0.947094 1.465373,-1.932521 2.918352,-2.706894 l 2.28472,-1.217649 1.90987,1.133175 c 1.05043,0.623248 1.97005,1.059499 2.0436,0.969444 0.0735,-0.09004 0.38739,-0.666353 0.69742,-1.280665 0.60693,-1.202616 1.92744,-1.463156 2.80909,-0.554244 0.7061,0.727929 2.53155,-2.226149 2.53414,-4.100911 0.003,-1.98083 1.06152,-2.574595 4.12408,-2.312768 3.57337,0.305495 4.62818,1.400703 4.92703,5.115647 0.18678,2.321351 0.0473,3.04663 -0.81824,4.2534 -0.57383,0.800169 -1.00175,1.9555 -0.95091,2.567401 0.17242,2.075271 -0.0551,2.782385 -0.99451,3.089741 -0.68899,0.225448 -1.01452,0.924432 -1.2293,2.639629 -0.16064,1.28314 -0.40854,3.173667 -0.55081,4.201166 -0.2439,1.761559 -0.16204,1.909814 1.43455,2.597534 0.93127,0.401139 2.89652,0.875146 4.36724,1.053347 2.21982,0.268968 2.72533,0.186119 2.97618,-0.487772 0.38141,-1.024698 1.75277,-1.035827 3.64032,-0.02956 1.12475,0.599624 1.40558,1.025467 1.20296,1.824219 -0.16483,0.649608 0.0375,1.269496 0.53709,1.646132 0.67666,0.510079 0.70137,0.728424 0.15865,1.402476 -0.98334,1.221509 -11.12969,1.051085 -16.35482,-0.274704 -1.17555,-0.298276 -1.12765,1.01052 0.0826,2.258254 0.64736,0.667378 1.31988,1.800221 1.49449,2.517431 0.17461,0.717204 0.63603,1.406139 1.0254,1.530965 2.55578,0.81934 2.46792,0.746924 1.5506,1.277829 -0.50722,0.293564 -0.84267,1.074644 -0.84267,1.962191 0,1.774104 3.38566,8.723727 7.551,15.499688 l 1.15744,1.882874 3.47053,-0.145427 c 2.79188,-0.116969 3.43815,-0.29103 3.30497,-0.890044 -1.108,-4.983949 -0.73142,-6.092316 2.34626,-6.905485 1.34787,-0.356142 2.52054,-0.567645 2.60591,-0.470023 0.0854,0.09764 0.83185,1.569117 1.65886,3.269984 1.99045,4.093767 2.94904,4.717049 6.33667,4.120218 1.44463,-0.254513 3.38354,-0.697016 4.30873,-0.983345 0.92517,-0.286324 2.48336,-0.520596 3.46262,-0.520596 0.97924,0 1.93421,-0.256424 2.12208,-0.569831 0.18778,-0.313411 0.51871,-2.548502 0.73516,-4.966868 0.21647,-2.418373 0.59912,-4.792991 0.85037,-5.276934 0.49243,-0.948604 0.31943,-8.233597 -0.29125,-12.264287 -0.30518,-2.014272 -0.61956,-2.59719 -1.68367,-3.121878 -1.09571,-0.540288 -1.26394,-0.874305 -1.0349,-2.054904 0.17562,-0.905155 0.0408,-1.563123 -0.37692,-1.838244 -1.22757,-0.808726 -4.02206,-1.66263 -5.46565,-1.670115 -1.0747,-0.0055 -1.79615,-0.461738 -2.81769,-1.781625 l -1.37317,-1.774136 1.07402,-3.443515 c 0.83303,-2.670877 0.99361,-3.971392 0.71563,-5.796167 -0.51036,-3.350189 -0.29639,-8.766787 0.35558,-9.003026 0.29904,-0.108354 1.0983,-0.806342 1.77616,-1.551107 1.72828,-1.898895 3.00381,-2.471425 5.50609,-2.471425 1.19354,0 2.30401,-0.223387 2.46768,-0.496415 0.16363,-0.273026 1.58492,-0.496413 3.15831,-0.496413 2.14704,0 2.86073,0.175441 2.86073,0.703253 0,0.38679 -0.27088,0.824697 -0.60191,0.973129 -0.33106,0.14843 -0.006,0.14269 0.72341,-0.01274 2.12152,-0.452401 4.46754,-1.863025 7.45051,-4.479886 3.82979,-3.359742 5.13841,-4.1335629 6.99034,-4.1335629 2.06434,0 3.34213,0.9582408 4.87608,3.6566519 0.68282,1.2012 1.57228,2.314855 1.97656,2.474789 0.40427,0.159929 0.73505,0.74457 0.73505,1.299193 0,0.781498 -0.31384,1.008411 -1.39469,1.008411 -1.68307,0 -4.38359,2.883184 -4.38359,4.680099 0,1.369282 -1.01734,1.902749 -2.76581,1.450335 -1.09496,-0.283317 -1.19344,-0.208608 -0.81852,0.62096 0.81758,1.809003 0.82009,10.346824 0.004,12.361301 -1.14592,2.827399 -0.96344,5.905663 0.50298,8.485341 0.69081,1.215218 1.66591,2.43564 2.16687,2.712039 0.85425,0.471323 0.86221,0.579038 0.12837,1.733841 -0.74326,1.169425 -0.72041,1.324462 0.4546,3.085126 2.643,3.960312 2.85489,6.089229 0.80277,8.065481 l -1.45129,1.397631 0.70413,4.832147 c 0.38729,2.657683 0.8864,5.020046 1.10917,5.249707 0.22275,0.229655 2.23829,0.208661 4.47894,-0.04664 5.93216,-0.675952 12.9821,-0.950137 12.9821,-0.504897 0,0.21178 -0.81256,0.907688 -1.80571,1.546452 -1.88827,1.214488 -4.5456,1.738957 -10.89649,2.150603 -2.08673,0.135265 -4.0369,0.443227 -4.33371,0.684374 -0.29682,0.241155 -2.48982,0.383031 -4.87335,0.315279 -2.38355,-0.06774 -4.55042,0.04518 -4.81524,0.250907 -0.26485,0.205745 -1.67329,0.528089 -3.1299,0.716328 -1.45661,0.188238 -4.05681,0.551409 -5.77827,0.807066 -5.35686,0.795559 -11.52369,1.108897 -12.15852,0.61777 -0.85778,-0.663611 -5.22964,-0.455554 -7.0862,0.337239 -1.21701,0.519693 -1.77449,0.540148 -2.47254,0.09074 -1.12363,-0.723431 -2.84882,-0.741377 -4.61476,-0.04802 -0.74555,0.292724 -2.9154,0.865171 -4.82192,1.272092 -2.7295,0.582587 -3.69385,0.614379 -4.53634,0.149541 -0.88795,-0.489913 -1.17247,-0.445792 -1.67265,0.259391 -0.49838,0.70265 -1.17167,0.809483 -3.89029,0.617238 -1.80818,-0.127857 -3.93768,-0.406269 -4.73219,-0.61868 -1.29468,-0.346127 -1.37771,-0.302762 -0.80017,0.417987 0.55815,0.696553 0.4937,0.841015 -0.48152,1.079329 -0.61926,0.15133 -4.3762,0.386449 -8.34876,0.522501 -9.459055,0.323946 -9.834672,0.366375 -10.31416,1.165319 -0.224798,0.374568 -0.704644,0.571255 -1.066318,0.437093 -0.361678,-0.134172 -1.03158,0.09175 -1.488676,0.502039 -0.513431,0.460858 -1.985794,0.787008 -3.852179,0.85332 -1.661607,0.05905 -5.151093,0.467684 -7.754429,0.908102 -3.571198,0.604156 -5.579963,0.691173 -8.181669,0.354384 -2.775633,-0.359299 -3.597463,-0.307253 -4.212758,0.266799 -0.93694,0.874147 -6.317687,0.972634 -7.612003,0.139337 -0.675725,-0.435052 -1.402114,-0.431836 -3.002982,0.01337 -2.820333,0.784209 -5.688917,1.019155 -6.005028,0.491839 -0.141279,-0.235246 -0.77047,-0.427708 -1.398522,-0.427708 -0.8105,0 -1.186557,0.318279 -1.295772,1.09672 -0.199892,1.424781 -2.846154,2.054588 -7.181229,1.70913 -1.746341,-0.139171 -4.080145,-0.04338 -5.186223,0.212793 -1.553354,0.35981 -2.258033,0.298995 -3.096272,-0.267236 -1.508955,-1.019286 -7.133616,-0.857332 -10.406612,0.299637 -3.018588,1.067046 -5.168603,1.18466 -5.479465,0.299752 -0.17441,-0.496415 -0.421855,-0.496415 -1.237405,0 -1.401915,0.853178 -1.532601,0.823849 -4.079926,-0.915608 z m 43.013712,-5.59382 c 5.56735,-0.549306 6.006962,-0.66728 5.858257,-1.572056 -0.0884,-0.537996 -0.255308,-2.088432 -0.370829,-3.445415 -0.115548,-1.356982 -0.368214,-2.610563 -0.5615,-2.785726 -0.58868,-0.533446 -6.914505,-3.930702 -7.319118,-3.930702 -0.208194,0 -0.862226,1.333436 -1.453439,2.963188 -0.591193,1.629754 -1.384215,3.227811 -1.762226,3.551246 -0.378032,0.323441 -1.351468,1.452541 -2.163206,2.50913 -1.204798,1.568252 -1.367492,2.055661 -0.885873,2.653928 0.679675,0.844286 0.672989,0.844243 8.657934,0.05641 z M 112.53094,80.88204 c -0.16002,-0.164949 -0.57532,-0.18258 -0.92292,-0.03919 -0.38413,0.158469 -0.27003,0.276095 0.29092,0.299914 0.5076,0.02157 0.792,-0.09578 0.632,-0.260731 z m -8.35898,-2.802672 c 0.1597,-0.614314 0.29331,-1.770185 0.29693,-2.5686 l 0.007,-1.451678 -1.11446,1.079363 c -0.61296,0.593647 -1.31718,1.088441 -1.56495,1.099533 -0.24777,0.01116 -1.2007,0.681255 -2.11763,1.489247 L 98.011339,79.1963 h 2.935161 c 2.63683,0 2.96468,-0.113515 3.22551,-1.116932 z m 16.40533,-0.393443 c 1.83784,-0.273832 3.42488,-0.583834 3.52679,-0.688896 0.20037,-0.206562 -4.79999,-9.811891 -6.85486,-13.167668 -1.28115,-2.092261 -1.42365,-2.195756 -3.74521,-2.720183 -1.28564,-0.290419 -1.32419,-0.236448 -1.32419,1.854095 0,1.184274 0.33115,3.302787 0.73588,4.707816 0.64899,2.252961 0.6528,2.759562 0.0323,4.29063 -0.38699,0.954825 -0.85107,2.74983 -1.03131,3.9889 l -0.3277,2.252851 2.82343,-0.0099 c 1.55289,-0.0054 4.32711,-0.233874 6.16492,-0.50771 z m 20.97543,-1.000999 c 0,-0.256909 -0.32503,-0.46711 -0.7223,-0.46711 -0.74463,0 -0.95665,0.585748 -0.41435,1.144804 0.38469,0.3966 1.13665,-0.0517 1.13665,-0.677694 z m 35.91721,-7.694178 c -0.1814,-2.063689 -0.54446,-4.334171 -0.8068,-5.045515 l -0.47698,-1.293348 -2.62347,2.687552 c -1.44294,1.478145 -2.62657,2.94492 -2.6303,3.259494 -0.004,0.314579 -0.65686,0.805575 -1.45136,1.091116 -0.79451,0.285527 -1.44457,0.821173 -1.44457,1.190308 0,1.460085 1.17972,1.862558 5.45947,1.862558 h 4.30381 z M 64.518856,64.837668 c -0.635715,-2.433882 -1.694399,-2.798214 -1.19049,-0.409696 0.18718,0.88734 0.563556,2.171815 0.836325,2.854381 0.748141,1.87203 1.009834,0.06559 0.354165,-2.444685 z M 170.23788,57.781556 c 0.63254,-1.261031 0.61337,-1.426394 -0.21837,-1.885305 -0.80518,-0.444241 -0.97436,-0.246694 -1.4474,1.69004 -0.29462,1.206191 -0.53566,2.344895 -0.53566,2.530451 0,0.643505 1.51159,-0.959931 2.20143,-2.335186 z m -57.86725,0.768746 c 0.35303,-0.948433 -0.08,-1.821856 -0.7056,-1.423246 -0.57289,0.36502 -0.58813,2.212665 -0.0184,2.212665 0.23651,0 0.56224,-0.355239 0.72386,-0.789419 z m -1.63537,-7.430715 c 0,-0.425651 -0.21669,-0.635853 -0.48152,-0.467116 -0.26484,0.168734 -0.48153,0.517006 -0.48153,0.773922 0,0.256914 0.21669,0.467116 0.48153,0.467116 0.26483,0 0.48152,-0.348265 0.48152,-0.773922 z m -0.54384,-3.500859 c -0.45509,-1.143331 -0.61228,-1.253067 -0.77552,-0.541416 -0.11261,0.49092 0.0607,1.222322 0.38517,1.625345 0.86176,1.070479 1.04517,0.56119 0.39035,-1.083929 z M 171.4659,40.1409 c -0.41968,-0.744014 -0.51364,-0.765461 -0.52566,-0.119977 -0.0159,0.836002 0.49076,1.588723 0.83204,1.236903 0.11247,-0.116023 -0.0253,-0.618659 -0.30638,-1.116934 z m -1.69397,-7.473106 c -0.48947,-0.504614 -0.89333,0.255103 -0.49172,0.92501 0.30337,0.506053 0.41678,0.506443 0.57989,0.002 0.1116,-0.344901 0.0719,-0.762057 -0.0882,-0.92701 z m 5.27452,-3.485244 c -0.52156,-3.0338 -0.75014,-3.532082 -1.77417,-3.867142 -1.28552,-0.420621 -1.7372,0.109299 -0.98936,1.160675 0.33054,0.464703 0.97293,1.680342 1.42754,2.701419 1.06329,2.388286 1.74614,2.390865 1.33599,0.0051 z m -7.97304,-4.248745 c 0,-0.630385 -0.33525,-1.579777 -0.74499,-2.10976 -0.69933,-0.904582 -0.72535,-0.857181 -0.42488,0.773846 0.49186,2.669944 1.16987,3.444185 1.16987,1.335914 z m 7.92525,-7.682862 c 0.10755,-0.576098 -0.10871,-1.139165 -0.49664,-1.292624 -0.47271,-0.187002 -0.68729,0.08486 -0.68729,0.870822 0,1.9894 0.83548,2.287062 1.18393,0.421802 z m 4.29617,-4.94648 c -0.40146,-1.73152 -0.61208,-2.10976 -1.17483,-2.10976 -0.51164,0 -0.60165,1.50537 -0.16084,2.689678 0.16084,0.431871 0.59827,0.785222 0.97223,0.785222 0.49747,0 0.595,-0.366356 0.36343,-1.36514 z"
       id="path6288"
       inkscape:connector-curvature="0" />
  </g>
</svg>
